<svg xmlns="http://www.w3.org/2000/svg" width="1200" height="800" viewBox="0 0 1200 800" role="img" aria-labelledby="title desc">
  <title id="title">Auditoria IA MEDGRUPO</title>
  <desc id="desc">Dashboard corporativo de auditoria assistida por IA, com indicadores, validacao humana e governanca.</desc>
  <defs>
    <linearGradient id="heroBg" x1="80" y1="88" x2="1080" y2="720" gradientUnits="userSpaceOnUse">
      <stop stop-color="#0f172a"/>
      <stop offset="0.58" stop-color="#123b48"/>
      <stop offset="1" stop-color="#126b63"/>
    </linearGradient>
    <linearGradient id="panel" x1="188" y1="160" x2="1012" y2="648" gradientUnits="userSpaceOnUse">
      <stop stop-color="#ffffff"/>
      <stop offset="1" stop-color="#e7f7f4"/>
    </linearGradient>
    <filter id="shadow" x="120" y="110" width="960" height="640" filterUnits="userSpaceOnUse" color-interpolation-filters="sRGB">
      <feDropShadow dx="0" dy="24" stdDeviation="24" flood-color="#020617" flood-opacity="0.28"/>
    </filter>
  </defs>
  <rect width="1200" height="800" rx="48" fill="url(#heroBg)"/>
  <path d="M0 584c137-78 244-104 386-74 149 31 241 111 384 116 157 5 259-86 430-116v290H0V584Z" fill="#22d3ee" opacity="0.12"/>
  <g filter="url(#shadow)">
    <rect x="168" y="132" width="864" height="536" rx="28" fill="url(#panel)"/>
    <rect x="168" y="132" width="864" height="82" rx="28" fill="#0f172a"/>
    <rect x="168" y="188" width="864" height="26" fill="#0f172a"/>
  </g>
  <circle cx="220" cy="173" r="10" fill="#ef4444"/>
  <circle cx="252" cy="173" r="10" fill="#f59e0b"/>
  <circle cx="284" cy="173" r="10" fill="#22c55e"/>
  <text x="338" y="181" font-family="Sora, Plus Jakarta Sans, Arial, sans-serif" font-size="24" font-weight="800" fill="#f8fafc">Auditoria IA MEDGRUPO</text>
  <text x="834" y="181" font-family="Plus Jakarta Sans, Arial, sans-serif" font-size="16" font-weight="700" fill="#8ee7db">IA + BI + Governanca</text>
  <g transform="translate(212 254)">
    <rect width="178" height="104" rx="16" fill="#dbeafe"/>
    <text x="24" y="38" font-family="Plus Jakarta Sans, Arial, sans-serif" font-size="14" font-weight="800" fill="#1e3a8a">Cobertura IA</text>
    <text x="24" y="78" font-family="Sora, Plus Jakarta Sans, Arial, sans-serif" font-size="40" font-weight="800" fill="#0f172a">30%</text>
  </g>
  <g transform="translate(414 254)">
    <rect width="178" height="104" rx="16" fill="#dcfce7"/>
    <text x="24" y="38" font-family="Plus Jakarta Sans, Arial, sans-serif" font-size="14" font-weight="800" fill="#166534">Validacao</text>
    <text x="24" y="78" font-family="Sora, Plus Jakarta Sans, Arial, sans-serif" font-size="40" font-weight="800" fill="#0f172a">Humana</text>
  </g>
  <g transform="translate(616 254)">
    <rect width="178" height="104" rx="16" fill="#fef3c7"/>
    <text x="24" y="38" font-family="Plus Jakarta Sans, Arial, sans-serif" font-size="14" font-weight="800" fill="#92400e">Risco</text>
    <text x="24" y="78" font-family="Sora, Plus Jakarta Sans, Arial, sans-serif" font-size="40" font-weight="800" fill="#0f172a">NCG</text>
  </g>
  <g transform="translate(818 254)">
    <rect width="178" height="104" rx="16" fill="#e0f2fe"/>
    <text x="24" y="38" font-family="Plus Jakarta Sans, Arial, sans-serif" font-size="14" font-weight="800" fill="#075985">Gemini</text>
    <text x="24" y="78" font-family="Sora, Plus Jakarta Sans, Arial, sans-serif" font-size="40" font-weight="800" fill="#0f172a">JSON</text>
  </g>
  <g transform="translate(212 404)">
    <rect width="386" height="188" rx="18" fill="#ffffff" stroke="#cbd5e1"/>
    <text x="24" y="40" font-family="Plus Jakarta Sans, Arial, sans-serif" font-size="18" font-weight="900" fill="#0f172a">Pipeline de monitoria</text>
    <path d="M34 130C88 84 132 92 174 112s74 44 124 16 67-64 96-54" fill="none" stroke="#126b63" stroke-width="8" stroke-linecap="round"/>
    <path d="M34 154h316" stroke="#e2e8f0" stroke-width="2"/>
    <path d="M34 96h316" stroke="#e2e8f0" stroke-width="2"/>
    <path d="M34 126h316" stroke="#e2e8f0" stroke-width="2"/>
  </g>
  <g transform="translate(634 404)">
    <rect width="362" height="188" rx="18" fill="#ffffff" stroke="#cbd5e1"/>
    <text x="24" y="40" font-family="Plus Jakarta Sans, Arial, sans-serif" font-size="18" font-weight="900" fill="#0f172a">Fila de revisao</text>
    <rect x="24" y="66" width="314" height="30" rx="8" fill="#f8fafc"/>
    <rect x="24" y="108" width="314" height="30" rx="8" fill="#eefdf8"/>
    <rect x="24" y="150" width="314" height="30" rx="8" fill="#fff7ed"/>
    <circle cx="47" cy="81" r="7" fill="#22c55e"/>
    <circle cx="47" cy="123" r="7" fill="#126b63"/>
    <circle cx="47" cy="165" r="7" fill="#f59e0b"/>
    <path d="M70 82h200M70 124h224M70 166h176" stroke="#64748b" stroke-width="8" stroke-linecap="round"/>
  </g>
</svg>
